<svg width="25" height="25" viewBox="0 0 25 25" fill="none" xmlns="http://www.w3.org/2000/svg">
  <path d="M20.7007 12.8591V11.1521C20.7007 6.71013 17.2217 2.99113 12.9457 2.86213C10.7417 2.81113 8.69468 3.59813 7.12968 5.11813C5.56268 6.63813 4.70068 8.67713 4.70068 10.8591V12.8591C3.59768 12.8591 2.70068 13.7561 2.70068 14.8591V18.8591C2.70068 19.9621 3.59768 20.8591 4.70068 20.8591H6.70068V10.8591C6.70068 9.22213 7.34668 7.69313 8.52168 6.55313C9.69568 5.41313 11.2567 4.81413 12.8847 4.86213C16.0927 4.95813 18.7007 7.78013 18.7007 11.1521V20.8591H20.7007C21.8037 20.8591 22.7007 19.9621 22.7007 18.8591V14.8591C22.7007 13.7561 21.8037 12.8591 20.7007 12.8591Z" fill="white" />
  <path d="M7.70068 12.8591H9.70068V20.8591H7.70068V12.8591ZM15.7007 12.8591H17.7007V20.8591H15.7007V12.8591Z" fill="white" />
</svg>