<svg width="33" height="33" viewBox="0 0 33 33" fill="none" xmlns="http://www.w3.org/2000/svg">
  <g clip-path="url(#clip0_446_85)">
    <path d="M30.9375 24.75C30.9375 25.297 30.7202 25.8216 30.3334 26.2084C29.9466 26.5952 29.422 26.8125 28.875 26.8125H4.125C3.57799 26.8125 3.05339 26.5952 2.66659 26.2084C2.2798 25.8216 2.0625 25.297 2.0625 24.75V12.375C2.0625 11.828 2.2798 11.3034 2.66659 10.9166C3.05339 10.5298 3.57799 10.3125 4.125 10.3125H6.54225C8.18243 10.3116 9.75514 9.65952 10.9147 8.49956L12.6266 6.79181C13.0123 6.406 13.5352 6.18871 14.0807 6.1875H18.9152C19.4622 6.18762 19.9867 6.40499 20.3734 6.79181L22.0811 8.49956C22.6558 9.07441 23.3381 9.5304 24.0891 9.84147C24.84 10.1525 25.6449 10.3126 26.4578 10.3125H28.875C29.422 10.3125 29.9466 10.5298 30.3334 10.9166C30.7202 11.3034 30.9375 11.828 30.9375 12.375V24.75ZM4.125 8.25C3.03098 8.25 1.98177 8.6846 1.20818 9.45818C0.434597 10.2318 0 11.281 0 12.375L0 24.75C0 25.844 0.434597 26.8932 1.20818 27.6668C1.98177 28.4404 3.03098 28.875 4.125 28.875H28.875C29.969 28.875 31.0182 28.4404 31.7918 27.6668C32.5654 26.8932 33 25.844 33 24.75V12.375C33 11.281 32.5654 10.2318 31.7918 9.45818C31.0182 8.6846 29.969 8.25 28.875 8.25H26.4578C25.3638 8.24977 24.3148 7.81502 23.5414 7.04138L21.8336 5.33362C21.0602 4.55998 20.0112 4.12523 18.9172 4.125H14.0828C12.9888 4.12523 11.9398 4.55998 11.1664 5.33362L9.45862 7.04138C8.68522 7.81502 7.63618 8.24977 6.54225 8.25H4.125Z" fill="#464E5F" />
    <path d="M16.5 22.6875C15.1325 22.6875 13.821 22.1443 12.854 21.1773C11.887 20.2103 11.3438 18.8988 11.3438 17.5312C11.3438 16.1637 11.887 14.8522 12.854 13.8852C13.821 12.9182 15.1325 12.375 16.5 12.375C17.8675 12.375 19.179 12.9182 20.146 13.8852C21.113 14.8522 21.6562 16.1637 21.6562 17.5312C21.6562 18.8988 21.113 20.2103 20.146 21.1773C19.179 22.1443 17.8675 22.6875 16.5 22.6875ZM16.5 24.75C18.4145 24.75 20.2506 23.9895 21.6044 22.6357C22.9582 21.2819 23.7188 19.4458 23.7188 17.5312C23.7188 15.6167 22.9582 13.7806 21.6044 12.4268C20.2506 11.073 18.4145 10.3125 16.5 10.3125C14.5855 10.3125 12.7494 11.073 11.3956 12.4268C10.0418 13.7806 9.28125 15.6167 9.28125 17.5312C9.28125 19.4458 10.0418 21.2819 11.3956 22.6357C12.7494 23.9895 14.5855 24.75 16.5 24.75ZM6.1875 13.4062C6.1875 13.6798 6.07885 13.9421 5.88545 14.1355C5.69206 14.3289 5.42975 14.4375 5.15625 14.4375C4.88275 14.4375 4.62044 14.3289 4.42705 14.1355C4.23365 13.9421 4.125 13.6798 4.125 13.4062C4.125 13.1327 4.23365 12.8704 4.42705 12.677C4.62044 12.4836 4.88275 12.375 5.15625 12.375C5.42975 12.375 5.69206 12.4836 5.88545 12.677C6.07885 12.8704 6.1875 13.1327 6.1875 13.4062Z" fill="#464E5F" />
  </g>
  <defs>
    <clipPath id="clip0_446_85">
      <rect width="33" height="33" fill="white" />
    </clipPath>
  </defs>
</svg>